<?xml version="1.0" encoding="UTF-8" standalone="no" ?>
<!DOCTYPE svg PUBLIC "-//W3C//DTD SVG 1.1//EN" "http://www.w3.org/Graphics/SVG/1.1/DTD/svg11.dtd">
<svg xmlns="http://www.w3.org/2000/svg" xmlns:xlink="http://www.w3.org/1999/xlink" version="1.1" width="1080" height="200" viewBox="544.77 100.58 1080 200" xml:space="preserve">
<desc>Created with Fabric.js 5.2.4</desc>
<defs>
</defs>
<rect x="0" y="0" width="100%" height="100%" fill="transparent"></rect>
<g transform="matrix(1 0 0 1 540 100)" id="10043dbe-46a0-46f3-83d7-e12e85cdbddd"  >
<rect style="stroke: none; stroke-width: 1; stroke-dasharray: none; stroke-linecap: butt; stroke-dashoffset: 0; stroke-linejoin: miter; stroke-miterlimit: 4; fill: rgb(255,255,255); fill-rule: nonzero; opacity: 1; visibility: hidden;" vector-effect="non-scaling-stroke"  x="-540" y="-100" rx="0" ry="0" width="1080" height="200" />
</g>
<g transform="matrix(Infinity NaN NaN Infinity 0 0)" id="e0b93759-be68-427f-882f-3863d766ce45"  >
</g>
<g transform="matrix(NaN NaN NaN NaN 0 0)"  >
<g style=""   >
		<g transform="matrix(1 0 0 1 -126.79 0)" id="container"  >
</g>
		<g transform="matrix(1 0 0 1 0 0)" id="icon_container"  >
</g>
		<g transform="matrix(1.56 0 0 1.56 -428.01 0)" id="path200775"  >
<path style="stroke: rgb(255,255,255); stroke-width: 0; stroke-dasharray: none; stroke-linecap: butt; stroke-dashoffset: 0; stroke-linejoin: miter; stroke-miterlimit: 2; fill: rgb(255,255,255); fill-rule: nonzero; opacity: 1;" vector-effect="non-scaling-stroke"  transform=" translate(-100, -100)" d="M 78.14673 125.20215 L 89.45142000000001 125.20215 L 89.45142000000001 74.79785000000001 L 78.14673 74.79785000000001 L 78.14673 125.20215 z M 110.54858 74.79785 L 110.54858 95.96777 L 97.94775 95.96777 L 96.50048 105.18457000000001 L 110.54858 105.18457000000001 L 110.54858 125.20215 L 121.85327000000001 125.20215 L 121.85327000000001 74.79785000000001 L 110.54858 74.79785000000001 z" stroke-linecap="round" />
</g>
		<g transform="matrix(1.56 0 0 1.56 -344.49 0)" id="path200777"  >
<polygon style="stroke: rgb(255,255,255); stroke-width: 0; stroke-dasharray: none; stroke-linecap: butt; stroke-dashoffset: 0; stroke-linejoin: miter; stroke-miterlimit: 2; fill: rgb(255,255,255); fill-rule: nonzero; opacity: 1;" vector-effect="non-scaling-stroke"  points="6.19,-25.2 -5.76,-25.2 -26.21,25.2 -14.69,25.2 -7.92,6.84 -7.92,6.84 -0.14,-13.26 14.19,25.2 26.21,25.2 " />
</g>
		<g transform="matrix(1.56 0 0 1.56 -262.83 0)" id="path200779"  >
<path style="stroke: rgb(255,255,255); stroke-width: 0; stroke-dasharray: none; stroke-linecap: butt; stroke-dashoffset: 0; stroke-linejoin: miter; stroke-miterlimit: 2; fill: rgb(255,255,255); fill-rule: nonzero; opacity: 1;" vector-effect="non-scaling-stroke"  transform=" translate(-100, -100)" d="M 111.08887 98.84766 C 116.92188 100.07227 120.66602 104.96875 120.66602 111.37696 C 120.66602 114.83301 119.51368000000001 117.78614 117.35352 120.01759 C 116.41797 103.24025 101.08008000000001 103.67286 101.08008000000001 103.67286 L 90.56738000000001 103.67286 L 90.56738000000001 116.12989 L 101.08008000000001 116.12989 C 104.75293 116.12989 107.34473000000001 114.76173 108.42481000000001 112.45704 C 112.96094000000001 118.36134000000001 109.28907000000001 125.20216 102.59278 125.20216 L 79.33398 125.20216 L 79.33398 74.79786000000001 L 101.72851 74.79786000000001 C 112.38476 74.79786000000001 119.00976 79.55030000000002 119.00976 87.18263000000002 C 119.00976 92.36720000000001 115.98535 96.54347000000001 111.08886 97.98390000000002 L 109.07323 98.56056000000002 L 111.08886 98.99220000000003 L 111.08886 98.84766 z M 107.41699 89.34326 C 107.41699 85.81494 104.96875 83.58252 101.00780999999999 83.58252 L 90.49511 83.58252 L 90.49511 95.24756000000001 L 101.00780999999999 95.24756000000001 C 104.89648 95.24756 107.41699 92.94336 107.41699 89.34326 z" stroke-linecap="round" />
</g>
		<g transform="matrix(1.56 0 0 1.56 -207.88 0)" id="path200781"  >
<path style="stroke: rgb(255,255,255); stroke-width: 0; stroke-dasharray: none; stroke-linecap: butt; stroke-dashoffset: 0; stroke-linejoin: miter; stroke-miterlimit: 2; fill: rgb(255,255,255); fill-rule: nonzero; opacity: 1;" vector-effect="non-scaling-stroke"  transform=" translate(-100, -100)" d="M 94.34717 125.20215 L 94.34717 74.79785000000001 L 105.65283000000001 74.79785000000001 L 105.65283000000001 125.20215000000002 L 94.34717 125.20215000000002 z" stroke-linecap="round" />
</g>
		<g transform="matrix(1.56 0 0 1.56 -158.38 -0.11)" id="path200783"  >
<path style="stroke: rgb(255,255,255); stroke-width: 0; stroke-dasharray: none; stroke-linecap: butt; stroke-dashoffset: 0; stroke-linejoin: miter; stroke-miterlimit: 2; fill: rgb(255,255,255); fill-rule: nonzero; opacity: 1;" vector-effect="non-scaling-stroke"  transform=" translate(-100, -100)" d="M 120.19775 74.79785 L 120.19775 84.30273 L 79.80225 84.30273 L 79.80225 74.79785 L 120.19775 74.79785 z M 94.2749 89.99121 C 99.53174 85.81493999999999 105.5083 89.99121 105.5083 89.99121 L 105.5083 125.20214999999999 L 94.20361 125.20214999999999 L 94.20361 89.99121 L 94.2749 89.99121 z" stroke-linecap="round" />
</g>
		<g transform="matrix(1.56 0 0 1.56 -77.08 -0.11)" id="path200785"  >
<path style="stroke: rgb(255,255,255); stroke-width: 0; stroke-dasharray: none; stroke-linecap: butt; stroke-dashoffset: 0; stroke-linejoin: miter; stroke-miterlimit: 2; fill: rgb(255,255,255); fill-rule: nonzero; opacity: 1;" vector-effect="non-scaling-stroke"  transform=" translate(-100, -100)" d="M 125.09473 74.79785 L 103.70801 120.08984 L 96.36426 120.08984 L 83.83496 89.70312 L 83.83496 125.20214 L 73.89746 125.20214 L 73.89746 74.79784000000001 L 86.49902 74.79784000000001 L 100.03613 106.19237000000001 L 115.66113 74.79784000000001 L 125.09473 74.79784000000001 z M 116.16504 103.52832 C 116.30957000000001 103.24023 119.76563 93.51952999999999 126.10254 89.55908 L 126.10254 125.20214999999999 L 116.30957000000001 125.20214999999999 L 116.2373 103.6001 L 116.16504 103.52832 z" stroke-linecap="round" />
</g>
		<g transform="matrix(1.56 0 0 1.56 13.38 0)" id="path200787"  >
<polygon style="stroke: rgb(255,255,255); stroke-width: 0; stroke-dasharray: none; stroke-linecap: butt; stroke-dashoffset: 0; stroke-linejoin: miter; stroke-miterlimit: 2; fill: rgb(255,255,255); fill-rule: nonzero; opacity: 1;" vector-effect="non-scaling-stroke"  points="6.19,-25.2 -5.76,-25.2 -26.21,25.2 -14.69,25.2 -7.92,6.84 -7.92,6.84 -0.14,-13.26 14.19,25.2 26.21,25.2 " />
</g>
		<g transform="matrix(1.56 0 0 1.56 93.64 0)" id="path200789"  >
<path style="stroke: rgb(255,255,255); stroke-width: 0; stroke-dasharray: none; stroke-linecap: butt; stroke-dashoffset: 0; stroke-linejoin: miter; stroke-miterlimit: 2; fill: rgb(255,255,255); fill-rule: nonzero; opacity: 1;" vector-effect="non-scaling-stroke"  transform=" translate(-100, -100)" d="M 124.01416 125.20215 L 110.54932000000001 125.20215 L 99.81983000000001 108.35254 L 89.09131000000001 125.20215 L 75.98584 125.20215 L 92.979 99.42383 L 77.13818 74.79785 L 90.24267 74.79785 L 99.89208 90.27929999999999 L 109.54052000000001 74.79785 L 122.71825000000001 74.79785 L 107.09227000000001 98.84765 L 124.01416 125.20215 z" stroke-linecap="round" />
</g>
		<g transform="matrix(1.56 0 0 1.56 171.08 0)" id="path200791"  >
<path style="stroke: rgb(255,255,255); stroke-width: 0; stroke-dasharray: none; stroke-linecap: butt; stroke-dashoffset: 0; stroke-linejoin: miter; stroke-miterlimit: 2; fill: rgb(255,255,255); fill-rule: nonzero; opacity: 1;" vector-effect="non-scaling-stroke"  transform=" translate(-100, -100)" d="M 124.01416 125.20215 L 110.54932000000001 125.20215 L 99.81983000000001 108.35254 L 89.09131000000001 125.20215 L 75.98584 125.20215 L 92.979 99.42383 L 77.13818 74.79785 L 90.24267 74.79785 L 99.89208 90.27929999999999 L 109.54052000000001 74.79785 L 122.71825000000001 74.79785 L 107.09227000000001 98.84765 L 124.01416 125.20215 z" stroke-linecap="round" />
</g>
		<g transform="matrix(1 0 0 1 0 0)" id="icon"  >
</g>
</g>
</g>
<g transform="matrix(NaN NaN NaN NaN 0 0)"  >
<g style=""   >
		<g transform="matrix(1 0 0 1 -126.79 0)" id="container"  >
</g>
		<g transform="matrix(1 0 0 1 0 0)" id="icon_container"  >
</g>
		<g transform="matrix(1.56 0 0 1.56 -428.01 0)" id="path200775"  >
<path style="stroke: rgb(255,255,255); stroke-width: 0; stroke-dasharray: none; stroke-linecap: butt; stroke-dashoffset: 0; stroke-linejoin: miter; stroke-miterlimit: 2; fill: rgb(255,255,255); fill-rule: nonzero; opacity: 1;" vector-effect="non-scaling-stroke"  transform=" translate(-100, -100)" d="M 78.14673 125.20215 L 89.45142000000001 125.20215 L 89.45142000000001 74.79785000000001 L 78.14673 74.79785000000001 L 78.14673 125.20215 z M 110.54858 74.79785 L 110.54858 95.96777 L 97.94775 95.96777 L 96.50048 105.18457000000001 L 110.54858 105.18457000000001 L 110.54858 125.20215 L 121.85327000000001 125.20215 L 121.85327000000001 74.79785000000001 L 110.54858 74.79785000000001 z" stroke-linecap="round" />
</g>
		<g transform="matrix(1.56 0 0 1.56 -344.49 0)" id="path200777"  >
<polygon style="stroke: rgb(255,255,255); stroke-width: 0; stroke-dasharray: none; stroke-linecap: butt; stroke-dashoffset: 0; stroke-linejoin: miter; stroke-miterlimit: 2; fill: rgb(255,255,255); fill-rule: nonzero; opacity: 1;" vector-effect="non-scaling-stroke"  points="6.19,-25.2 -5.76,-25.2 -26.21,25.2 -14.69,25.2 -7.92,6.84 -7.92,6.84 -0.14,-13.26 14.19,25.2 26.21,25.2 " />
</g>
		<g transform="matrix(1.56 0 0 1.56 -262.83 0)" id="path200779"  >
<path style="stroke: rgb(255,255,255); stroke-width: 0; stroke-dasharray: none; stroke-linecap: butt; stroke-dashoffset: 0; stroke-linejoin: miter; stroke-miterlimit: 2; fill: rgb(255,255,255); fill-rule: nonzero; opacity: 1;" vector-effect="non-scaling-stroke"  transform=" translate(-100, -100)" d="M 111.08887 98.84766 C 116.92188 100.07227 120.66602 104.96875 120.66602 111.37696 C 120.66602 114.83301 119.51368000000001 117.78614 117.35352 120.01759 C 116.41797 103.24025 101.08008000000001 103.67286 101.08008000000001 103.67286 L 90.56738000000001 103.67286 L 90.56738000000001 116.12989 L 101.08008000000001 116.12989 C 104.75293 116.12989 107.34473000000001 114.76173 108.42481000000001 112.45704 C 112.96094000000001 118.36134000000001 109.28907000000001 125.20216 102.59278 125.20216 L 79.33398 125.20216 L 79.33398 74.79786000000001 L 101.72851 74.79786000000001 C 112.38476 74.79786000000001 119.00976 79.55030000000002 119.00976 87.18263000000002 C 119.00976 92.36720000000001 115.98535 96.54347000000001 111.08886 97.98390000000002 L 109.07323 98.56056000000002 L 111.08886 98.99220000000003 L 111.08886 98.84766 z M 107.41699 89.34326 C 107.41699 85.81494 104.96875 83.58252 101.00780999999999 83.58252 L 90.49511 83.58252 L 90.49511 95.24756000000001 L 101.00780999999999 95.24756000000001 C 104.89648 95.24756 107.41699 92.94336 107.41699 89.34326 z" stroke-linecap="round" />
</g>
		<g transform="matrix(1.56 0 0 1.56 -207.88 0)" id="path200781"  >
<path style="stroke: rgb(255,255,255); stroke-width: 0; stroke-dasharray: none; stroke-linecap: butt; stroke-dashoffset: 0; stroke-linejoin: miter; stroke-miterlimit: 2; fill: rgb(255,255,255); fill-rule: nonzero; opacity: 1;" vector-effect="non-scaling-stroke"  transform=" translate(-100, -100)" d="M 94.34717 125.20215 L 94.34717 74.79785000000001 L 105.65283000000001 74.79785000000001 L 105.65283000000001 125.20215000000002 L 94.34717 125.20215000000002 z" stroke-linecap="round" />
</g>
		<g transform="matrix(1.56 0 0 1.56 -158.38 -0.11)" id="path200783"  >
<path style="stroke: rgb(255,255,255); stroke-width: 0; stroke-dasharray: none; stroke-linecap: butt; stroke-dashoffset: 0; stroke-linejoin: miter; stroke-miterlimit: 2; fill: rgb(255,255,255); fill-rule: nonzero; opacity: 1;" vector-effect="non-scaling-stroke"  transform=" translate(-100, -100)" d="M 120.19775 74.79785 L 120.19775 84.30273 L 79.80225 84.30273 L 79.80225 74.79785 L 120.19775 74.79785 z M 94.2749 89.99121 C 99.53174 85.81493999999999 105.5083 89.99121 105.5083 89.99121 L 105.5083 125.20214999999999 L 94.20361 125.20214999999999 L 94.20361 89.99121 L 94.2749 89.99121 z" stroke-linecap="round" />
</g>
		<g transform="matrix(1.56 0 0 1.56 -77.08 -0.11)" id="path200785"  >
<path style="stroke: rgb(255,255,255); stroke-width: 0; stroke-dasharray: none; stroke-linecap: butt; stroke-dashoffset: 0; stroke-linejoin: miter; stroke-miterlimit: 2; fill: rgb(255,255,255); fill-rule: nonzero; opacity: 1;" vector-effect="non-scaling-stroke"  transform=" translate(-100, -100)" d="M 125.09473 74.79785 L 103.70801 120.08984 L 96.36426 120.08984 L 83.83496 89.70312 L 83.83496 125.20214 L 73.89746 125.20214 L 73.89746 74.79784000000001 L 86.49902 74.79784000000001 L 100.03613 106.19237000000001 L 115.66113 74.79784000000001 L 125.09473 74.79784000000001 z M 116.16504 103.52832 C 116.30957000000001 103.24023 119.76563 93.51952999999999 126.10254 89.55908 L 126.10254 125.20214999999999 L 116.30957000000001 125.20214999999999 L 116.2373 103.6001 L 116.16504 103.52832 z" stroke-linecap="round" />
</g>
		<g transform="matrix(1.56 0 0 1.56 13.38 0)" id="path200787"  >
<polygon style="stroke: rgb(255,255,255); stroke-width: 0; stroke-dasharray: none; stroke-linecap: butt; stroke-dashoffset: 0; stroke-linejoin: miter; stroke-miterlimit: 2; fill: rgb(255,255,255); fill-rule: nonzero; opacity: 1;" vector-effect="non-scaling-stroke"  points="6.19,-25.2 -5.76,-25.2 -26.21,25.2 -14.69,25.2 -7.92,6.84 -7.92,6.84 -0.14,-13.26 14.19,25.2 26.21,25.2 " />
</g>
		<g transform="matrix(1.56 0 0 1.56 93.64 0)" id="path200789"  >
<path style="stroke: rgb(255,255,255); stroke-width: 0; stroke-dasharray: none; stroke-linecap: butt; stroke-dashoffset: 0; stroke-linejoin: miter; stroke-miterlimit: 2; fill: rgb(255,255,255); fill-rule: nonzero; opacity: 1;" vector-effect="non-scaling-stroke"  transform=" translate(-100, -100)" d="M 124.01416 125.20215 L 110.54932000000001 125.20215 L 99.81983000000001 108.35254 L 89.09131000000001 125.20215 L 75.98584 125.20215 L 92.979 99.42383 L 77.13818 74.79785 L 90.24267 74.79785 L 99.89208 90.27929999999999 L 109.54052000000001 74.79785 L 122.71825000000001 74.79785 L 107.09227000000001 98.84765 L 124.01416 125.20215 z" stroke-linecap="round" />
</g>
		<g transform="matrix(1.56 0 0 1.56 171.08 0)" id="path200791"  >
<path style="stroke: rgb(255,255,255); stroke-width: 0; stroke-dasharray: none; stroke-linecap: butt; stroke-dashoffset: 0; stroke-linejoin: miter; stroke-miterlimit: 2; fill: rgb(255,255,255); fill-rule: nonzero; opacity: 1;" vector-effect="non-scaling-stroke"  transform=" translate(-100, -100)" d="M 124.01416 125.20215 L 110.54932000000001 125.20215 L 99.81983000000001 108.35254 L 89.09131000000001 125.20215 L 75.98584 125.20215 L 92.979 99.42383 L 77.13818 74.79785 L 90.24267 74.79785 L 99.89208 90.27929999999999 L 109.54052000000001 74.79785 L 122.71825000000001 74.79785 L 107.09227000000001 98.84765 L 124.01416 125.20215 z" stroke-linecap="round" />
</g>
		<g transform="matrix(1 0 0 1 0 0)" id="icon"  >
</g>
</g>
</g>
<g transform="matrix(NaN NaN NaN NaN 0 0)"  >
<g style=""   >
		<g transform="matrix(1 0 0 1 -126.79 0)" id="container"  >
</g>
		<g transform="matrix(1 0 0 1 0 0)" id="icon_container"  >
</g>
		<g transform="matrix(1.56 0 0 1.56 -428.01 0)" id="path200775"  >
<path style="stroke: rgb(255,255,255); stroke-width: 0; stroke-dasharray: none; stroke-linecap: butt; stroke-dashoffset: 0; stroke-linejoin: miter; stroke-miterlimit: 2; fill: rgb(255,255,255); fill-rule: nonzero; opacity: 1;" vector-effect="non-scaling-stroke"  transform=" translate(-100, -100)" d="M 78.14673 125.20215 L 89.45142000000001 125.20215 L 89.45142000000001 74.79785000000001 L 78.14673 74.79785000000001 L 78.14673 125.20215 z M 110.54858 74.79785 L 110.54858 95.96777 L 97.94775 95.96777 L 96.50048 105.18457000000001 L 110.54858 105.18457000000001 L 110.54858 125.20215 L 121.85327000000001 125.20215 L 121.85327000000001 74.79785000000001 L 110.54858 74.79785000000001 z" stroke-linecap="round" />
</g>
		<g transform="matrix(1.56 0 0 1.56 -344.49 0)" id="path200777"  >
<polygon style="stroke: rgb(255,255,255); stroke-width: 0; stroke-dasharray: none; stroke-linecap: butt; stroke-dashoffset: 0; stroke-linejoin: miter; stroke-miterlimit: 2; fill: rgb(255,255,255); fill-rule: nonzero; opacity: 1;" vector-effect="non-scaling-stroke"  points="6.19,-25.2 -5.76,-25.2 -26.21,25.2 -14.69,25.2 -7.92,6.84 -7.92,6.84 -0.14,-13.26 14.19,25.2 26.21,25.2 " />
</g>
		<g transform="matrix(1.56 0 0 1.56 -262.83 0)" id="path200779"  >
<path style="stroke: rgb(255,255,255); stroke-width: 0; stroke-dasharray: none; stroke-linecap: butt; stroke-dashoffset: 0; stroke-linejoin: miter; stroke-miterlimit: 2; fill: rgb(255,255,255); fill-rule: nonzero; opacity: 1;" vector-effect="non-scaling-stroke"  transform=" translate(-100, -100)" d="M 111.08887 98.84766 C 116.92188 100.07227 120.66602 104.96875 120.66602 111.37696 C 120.66602 114.83301 119.51368000000001 117.78614 117.35352 120.01759 C 116.41797 103.24025 101.08008000000001 103.67286 101.08008000000001 103.67286 L 90.56738000000001 103.67286 L 90.56738000000001 116.12989 L 101.08008000000001 116.12989 C 104.75293 116.12989 107.34473000000001 114.76173 108.42481000000001 112.45704 C 112.96094000000001 118.36134000000001 109.28907000000001 125.20216 102.59278 125.20216 L 79.33398 125.20216 L 79.33398 74.79786000000001 L 101.72851 74.79786000000001 C 112.38476 74.79786000000001 119.00976 79.55030000000002 119.00976 87.18263000000002 C 119.00976 92.36720000000001 115.98535 96.54347000000001 111.08886 97.98390000000002 L 109.07323 98.56056000000002 L 111.08886 98.99220000000003 L 111.08886 98.84766 z M 107.41699 89.34326 C 107.41699 85.81494 104.96875 83.58252 101.00780999999999 83.58252 L 90.49511 83.58252 L 90.49511 95.24756000000001 L 101.00780999999999 95.24756000000001 C 104.89648 95.24756 107.41699 92.94336 107.41699 89.34326 z" stroke-linecap="round" />
</g>
		<g transform="matrix(1.56 0 0 1.56 -207.88 0)" id="path200781"  >
<path style="stroke: rgb(255,255,255); stroke-width: 0; stroke-dasharray: none; stroke-linecap: butt; stroke-dashoffset: 0; stroke-linejoin: miter; stroke-miterlimit: 2; fill: rgb(255,255,255); fill-rule: nonzero; opacity: 1;" vector-effect="non-scaling-stroke"  transform=" translate(-100, -100)" d="M 94.34717 125.20215 L 94.34717 74.79785000000001 L 105.65283000000001 74.79785000000001 L 105.65283000000001 125.20215000000002 L 94.34717 125.20215000000002 z" stroke-linecap="round" />
</g>
		<g transform="matrix(1.56 0 0 1.56 -158.38 -0.11)" id="path200783"  >
<path style="stroke: rgb(255,255,255); stroke-width: 0; stroke-dasharray: none; stroke-linecap: butt; stroke-dashoffset: 0; stroke-linejoin: miter; stroke-miterlimit: 2; fill: rgb(255,255,255); fill-rule: nonzero; opacity: 1;" vector-effect="non-scaling-stroke"  transform=" translate(-100, -100)" d="M 120.19775 74.79785 L 120.19775 84.30273 L 79.80225 84.30273 L 79.80225 74.79785 L 120.19775 74.79785 z M 94.2749 89.99121 C 99.53174 85.81493999999999 105.5083 89.99121 105.5083 89.99121 L 105.5083 125.20214999999999 L 94.20361 125.20214999999999 L 94.20361 89.99121 L 94.2749 89.99121 z" stroke-linecap="round" />
</g>
		<g transform="matrix(1.56 0 0 1.56 -77.08 -0.11)" id="path200785"  >
<path style="stroke: rgb(255,255,255); stroke-width: 0; stroke-dasharray: none; stroke-linecap: butt; stroke-dashoffset: 0; stroke-linejoin: miter; stroke-miterlimit: 2; fill: rgb(255,255,255); fill-rule: nonzero; opacity: 1;" vector-effect="non-scaling-stroke"  transform=" translate(-100, -100)" d="M 125.09473 74.79785 L 103.70801 120.08984 L 96.36426 120.08984 L 83.83496 89.70312 L 83.83496 125.20214 L 73.89746 125.20214 L 73.89746 74.79784000000001 L 86.49902 74.79784000000001 L 100.03613 106.19237000000001 L 115.66113 74.79784000000001 L 125.09473 74.79784000000001 z M 116.16504 103.52832 C 116.30957000000001 103.24023 119.76563 93.51952999999999 126.10254 89.55908 L 126.10254 125.20214999999999 L 116.30957000000001 125.20214999999999 L 116.2373 103.6001 L 116.16504 103.52832 z" stroke-linecap="round" />
</g>
		<g transform="matrix(1.56 0 0 1.56 13.38 0)" id="path200787"  >
<polygon style="stroke: rgb(255,255,255); stroke-width: 0; stroke-dasharray: none; stroke-linecap: butt; stroke-dashoffset: 0; stroke-linejoin: miter; stroke-miterlimit: 2; fill: rgb(255,255,255); fill-rule: nonzero; opacity: 1;" vector-effect="non-scaling-stroke"  points="6.19,-25.2 -5.76,-25.2 -26.21,25.2 -14.69,25.2 -7.92,6.84 -7.92,6.84 -0.14,-13.26 14.19,25.2 26.21,25.2 " />
</g>
		<g transform="matrix(1.56 0 0 1.56 93.64 0)" id="path200789"  >
<path style="stroke: rgb(255,255,255); stroke-width: 0; stroke-dasharray: none; stroke-linecap: butt; stroke-dashoffset: 0; stroke-linejoin: miter; stroke-miterlimit: 2; fill: rgb(255,255,255); fill-rule: nonzero; opacity: 1;" vector-effect="non-scaling-stroke"  transform=" translate(-100, -100)" d="M 124.01416 125.20215 L 110.54932000000001 125.20215 L 99.81983000000001 108.35254 L 89.09131000000001 125.20215 L 75.98584 125.20215 L 92.979 99.42383 L 77.13818 74.79785 L 90.24267 74.79785 L 99.89208 90.27929999999999 L 109.54052000000001 74.79785 L 122.71825000000001 74.79785 L 107.09227000000001 98.84765 L 124.01416 125.20215 z" stroke-linecap="round" />
</g>
		<g transform="matrix(1.56 0 0 1.56 171.08 0)" id="path200791"  >
<path style="stroke: rgb(255,255,255); stroke-width: 0; stroke-dasharray: none; stroke-linecap: butt; stroke-dashoffset: 0; stroke-linejoin: miter; stroke-miterlimit: 2; fill: rgb(255,255,255); fill-rule: nonzero; opacity: 1;" vector-effect="non-scaling-stroke"  transform=" translate(-100, -100)" d="M 124.01416 125.20215 L 110.54932000000001 125.20215 L 99.81983000000001 108.35254 L 89.09131000000001 125.20215 L 75.98584 125.20215 L 92.979 99.42383 L 77.13818 74.79785 L 90.24267 74.79785 L 99.89208 90.27929999999999 L 109.54052000000001 74.79785 L 122.71825000000001 74.79785 L 107.09227000000001 98.84765 L 124.01416 125.20215 z" stroke-linecap="round" />
</g>
		<g transform="matrix(1 0 0 1 0 0)" id="icon"  >
</g>
</g>
</g>
<g transform="matrix(0.2 0 0 0.2 1085.25 200.62)"  >
<g style=""   >
		<g transform="matrix(1 0 0 1 0 0)" id="container"  >
</g>
		<g transform="matrix(1 0 0 1 126.79 0)" id="icon_container"  >
</g>
		<g transform="matrix(1.56 0 0 1.56 -301.22 0)" id="path200775"  >
<path style="stroke: rgb(255,255,255); stroke-width: 0; stroke-dasharray: none; stroke-linecap: butt; stroke-dashoffset: 0; stroke-linejoin: miter; stroke-miterlimit: 2; fill: rgb(255,255,255); fill-rule: nonzero; opacity: 1;" vector-effect="non-scaling-stroke"  transform=" translate(-100, -100)" d="M 78.14673 125.20215 L 89.45142000000001 125.20215 L 89.45142000000001 74.79785000000001 L 78.14673 74.79785000000001 L 78.14673 125.20215 z M 110.54858 74.79785 L 110.54858 95.96777 L 97.94775 95.96777 L 96.50048 105.18457000000001 L 110.54858 105.18457000000001 L 110.54858 125.20215 L 121.85327000000001 125.20215 L 121.85327000000001 74.79785000000001 L 110.54858 74.79785000000001 z" stroke-linecap="round" />
</g>
		<g transform="matrix(1.56 0 0 1.56 -217.71 0)" id="path200777"  >
<polygon style="stroke: rgb(255,255,255); stroke-width: 0; stroke-dasharray: none; stroke-linecap: butt; stroke-dashoffset: 0; stroke-linejoin: miter; stroke-miterlimit: 2; fill: rgb(255,255,255); fill-rule: nonzero; opacity: 1;" vector-effect="non-scaling-stroke"  points="6.19,-25.2 -5.76,-25.2 -26.21,25.2 -14.69,25.2 -7.92,6.84 -7.92,6.84 -0.14,-13.26 14.19,25.2 26.21,25.2 " />
</g>
		<g transform="matrix(1.56 0 0 1.56 -136.05 0)" id="path200779"  >
<path style="stroke: rgb(255,255,255); stroke-width: 0; stroke-dasharray: none; stroke-linecap: butt; stroke-dashoffset: 0; stroke-linejoin: miter; stroke-miterlimit: 2; fill: rgb(255,255,255); fill-rule: nonzero; opacity: 1;" vector-effect="non-scaling-stroke"  transform=" translate(-100, -100)" d="M 111.08887 98.84766 C 116.92188 100.07227 120.66602 104.96875 120.66602 111.37696 C 120.66602 114.83301 119.51368000000001 117.78614 117.35352 120.01759 C 116.41797 103.24025 101.08008000000001 103.67286 101.08008000000001 103.67286 L 90.56738000000001 103.67286 L 90.56738000000001 116.12989 L 101.08008000000001 116.12989 C 104.75293 116.12989 107.34473000000001 114.76173 108.42481000000001 112.45704 C 112.96094000000001 118.36134000000001 109.28907000000001 125.20216 102.59278 125.20216 L 79.33398 125.20216 L 79.33398 74.79786000000001 L 101.72851 74.79786000000001 C 112.38476 74.79786000000001 119.00976 79.55030000000002 119.00976 87.18263000000002 C 119.00976 92.36720000000001 115.98535 96.54347000000001 111.08886 97.98390000000002 L 109.07323 98.56056000000002 L 111.08886 98.99220000000003 L 111.08886 98.84766 z M 107.41699 89.34326 C 107.41699 85.81494 104.96875 83.58252 101.00780999999999 83.58252 L 90.49511 83.58252 L 90.49511 95.24756000000001 L 101.00780999999999 95.24756000000001 C 104.89648 95.24756 107.41699 92.94336 107.41699 89.34326 z" stroke-linecap="round" />
</g>
		<g transform="matrix(1.56 0 0 1.56 -81.09 0)" id="path200781"  >
<path style="stroke: rgb(255,255,255); stroke-width: 0; stroke-dasharray: none; stroke-linecap: butt; stroke-dashoffset: 0; stroke-linejoin: miter; stroke-miterlimit: 2; fill: rgb(255,255,255); fill-rule: nonzero; opacity: 1;" vector-effect="non-scaling-stroke"  transform=" translate(-100, -100)" d="M 94.34717 125.20215 L 94.34717 74.79785000000001 L 105.65283000000001 74.79785000000001 L 105.65283000000001 125.20215000000002 L 94.34717 125.20215000000002 z" stroke-linecap="round" />
</g>
		<g transform="matrix(1.56 0 0 1.56 -31.6 -0.11)" id="path200783"  >
<path style="stroke: rgb(255,255,255); stroke-width: 0; stroke-dasharray: none; stroke-linecap: butt; stroke-dashoffset: 0; stroke-linejoin: miter; stroke-miterlimit: 2; fill: rgb(255,255,255); fill-rule: nonzero; opacity: 1;" vector-effect="non-scaling-stroke"  transform=" translate(-100, -100)" d="M 120.19775 74.79785 L 120.19775 84.30273 L 79.80225 84.30273 L 79.80225 74.79785 L 120.19775 74.79785 z M 94.2749 89.99121 C 99.53174 85.81493999999999 105.5083 89.99121 105.5083 89.99121 L 105.5083 125.20214999999999 L 94.20361 125.20214999999999 L 94.20361 89.99121 L 94.2749 89.99121 z" stroke-linecap="round" />
</g>
		<g transform="matrix(1.56 0 0 1.56 49.7 -0.11)" id="path200785"  >
<path style="stroke: rgb(255,255,255); stroke-width: 0; stroke-dasharray: none; stroke-linecap: butt; stroke-dashoffset: 0; stroke-linejoin: miter; stroke-miterlimit: 2; fill: rgb(255,255,255); fill-rule: nonzero; opacity: 1;" vector-effect="non-scaling-stroke"  transform=" translate(-100, -100)" d="M 125.09473 74.79785 L 103.70801 120.08984 L 96.36426 120.08984 L 83.83496 89.70312 L 83.83496 125.20214 L 73.89746 125.20214 L 73.89746 74.79784000000001 L 86.49902 74.79784000000001 L 100.03613 106.19237000000001 L 115.66113 74.79784000000001 L 125.09473 74.79784000000001 z M 116.16504 103.52832 C 116.30957000000001 103.24023 119.76563 93.51952999999999 126.10254 89.55908 L 126.10254 125.20214999999999 L 116.30957000000001 125.20214999999999 L 116.2373 103.6001 L 116.16504 103.52832 z" stroke-linecap="round" />
</g>
		<g transform="matrix(1.56 0 0 1.56 140.17 0)" id="path200787"  >
<polygon style="stroke: rgb(255,255,255); stroke-width: 0; stroke-dasharray: none; stroke-linecap: butt; stroke-dashoffset: 0; stroke-linejoin: miter; stroke-miterlimit: 2; fill: rgb(255,255,255); fill-rule: nonzero; opacity: 1;" vector-effect="non-scaling-stroke"  points="6.19,-25.2 -5.76,-25.2 -26.21,25.2 -14.69,25.2 -7.92,6.84 -7.92,6.84 -0.14,-13.26 14.19,25.2 26.21,25.2 " />
</g>
		<g transform="matrix(1.56 0 0 1.56 220.43 0)" id="path200789"  >
<path style="stroke: rgb(255,255,255); stroke-width: 0; stroke-dasharray: none; stroke-linecap: butt; stroke-dashoffset: 0; stroke-linejoin: miter; stroke-miterlimit: 2; fill: rgb(255,255,255); fill-rule: nonzero; opacity: 1;" vector-effect="non-scaling-stroke"  transform=" translate(-100, -100)" d="M 124.01416 125.20215 L 110.54932000000001 125.20215 L 99.81983000000001 108.35254 L 89.09131000000001 125.20215 L 75.98584 125.20215 L 92.979 99.42383 L 77.13818 74.79785 L 90.24267 74.79785 L 99.89208 90.27929999999999 L 109.54052000000001 74.79785 L 122.71825000000001 74.79785 L 107.09227000000001 98.84765 L 124.01416 125.20215 z" stroke-linecap="round" />
</g>
		<g transform="matrix(1.56 0 0 1.56 297.86 0)" id="path200791"  >
<path style="stroke: rgb(255,255,255); stroke-width: 0; stroke-dasharray: none; stroke-linecap: butt; stroke-dashoffset: 0; stroke-linejoin: miter; stroke-miterlimit: 2; fill: rgb(255,255,255); fill-rule: nonzero; opacity: 1;" vector-effect="non-scaling-stroke"  transform=" translate(-100, -100)" d="M 124.01416 125.20215 L 110.54932000000001 125.20215 L 99.81983000000001 108.35254 L 89.09131000000001 125.20215 L 75.98584 125.20215 L 92.979 99.42383 L 77.13818 74.79785 L 90.24267 74.79785 L 99.89208 90.27929999999999 L 109.54052000000001 74.79785 L 122.71825000000001 74.79785 L 107.09227000000001 98.84765 L 124.01416 125.20215 z" stroke-linecap="round" />
</g>
		<g transform="matrix(1 0 0 1 126.79 0)" id="icon"  >
</g>
</g>
</g>
</svg>